<svg xmlns="http://www.w3.org/2000/svg" width="502.75" height="132.833" xml:space="preserve" fill="#020000"><path d="M106.802 20.619c-3.33 0-5.973 6.505-6.044 9.33 0 0-3.827-.355-5.352-.284-1.757.079-4.379.726-4.962.877l-1.713 1.344.963-2.999c-1.375-3.132-4.267-7.28-7.64-7.28-3.443 0-2.607 6.729-2.607 9.055 0 2.19.616 3.409 1.543 4.979.724 1.24 2.178 2.979 2.171 3.65-.008 1.577-.711 5.115.699 6.813-3.402.827-8.228 1.517-10.665 1.808-2.552.309-6.051.048-8.695.251-.802.063-1.559.165-2.283.298a21.524 21.524 0 0 0-5.563 1.8c-1.857.887-3.316 1.882-4.457 2.637-3.99 2.642-11.382 15.015-11.382 21.272v2.459c0 6.365.646 6.002-1.58 11.36-1.136 2.735-3.987 6.688-3.987 8.035v1.481h4.947c2.203 0 5.327-11.229 5.858-13.865.776-3.844 6.731-9.874 10.163-11.922 2.345 1.402 7.142 5.542 7.142 8.844v1.963c0 3.111-1.077 4.678-1.077 6.939v.479c0 3.459 1.729 3.8 1.729 8.405l.416 1.32h8.129l.156-1.426c0-1.813-3.046-1.397-2.032-9.32.262-2.084.165-3.754.872-5.641.68-1.808.695-1.787 1.161-4.195 1.83.666 2.539.793 4.947.978 0 0 2.29.113 3.09.101.786-.021 3.274-.256 3.274-.256 3.287-.539 3.162-.951 4.081-1.318 0 0-1.755 2.99-1.729 6.535.021 3.36-1.367 5.832-1.801 7.696-.078.351-.188 1.071-.169 1.427.027.396.404 1.438.404 1.438 0 1.71-.332 2.956 1.651 2.956h7.146c-.102-4.024-2.751-2.11-2.751-5.897v-1.473c0-5.175 4.665-7.592 6.229-11.542 1.143-2.868.362-4.137 2.239-6.838 1.014-1.445 2.704-4.22 3.083-6.095.25-1.24.389-2.617.499-4.737.245-4.704-.838-8.388-.838-8.388.184-1.003.558-1.916 1.374-2.651 2.75-2.486 5.188-3.103 5.598-7.982 0 0 .327-2.687.283-3.577-.02-.64.044-2.55.044-2.55l.19-1.559c.004-4.718 2.336-14.735-2.754-14.735z"/><path d="M187.352 51.819c0 2.578-.694 4.587-2.082 6.047-1.382 1.454-3.252 2.187-5.586 2.187-2.401 0-4.328-.741-5.769-2.214-1.437-1.474-2.147-3.477-2.147-6.02V30.952h-8.03V51.82c0 3.123.644 5.818 1.927 8.107 1.293 2.275 3.137 4.036 5.544 5.279 2.401 1.229 5.208 1.857 8.428 1.857 3.218 0 6.011-.629 8.38-1.857 2.364-1.243 4.187-3.004 5.457-5.279 1.264-2.29 1.906-4.985 1.906-8.107V30.952h-8.028v20.867zM206.885 30.952h-8.03v35.552h23.265v-7.01h-15.235zM233.635 59.494V30.952h-8.024v35.552h23.264v-7.01zM277.155 33.21c-2.849-1.505-6.083-2.259-9.706-2.259h-15.083v35.553h14.776c3.7 0 6.979-.755 9.856-2.265 2.876-1.506 5.125-3.602 6.729-6.296 1.607-2.696 2.409-5.768 2.409-9.219 0-3.453-.787-6.524-2.358-9.22-1.576-2.689-3.782-4.786-6.623-6.294zm-.517 21.256a9.715 9.715 0 0 1-3.671 3.883c-1.578.935-3.354 1.396-5.308 1.396h-7.262V37.704h6.897c2.039 0 3.854.467 5.458 1.396 1.608.932 2.877 2.244 3.815 3.938.935 1.688 1.396 3.603 1.396 5.735.002 2.137-.445 4.033-1.325 5.693zM318.408 32.777c-2.919-1.591-6.146-2.384-9.706-2.384-3.589 0-6.827.793-9.718 2.384-2.896 1.593-5.181 3.783-6.859 6.577-1.674 2.798-2.512 5.898-2.512 9.32 0 3.448.838 6.575 2.512 9.368 1.68 2.793 3.968 4.998 6.88 6.605 2.911 1.605 6.151 2.417 9.697 2.417 3.562 0 6.787-.81 9.706-2.417 2.903-1.607 5.208-3.819 6.874-6.632 1.688-2.805 2.517-5.921 2.517-9.34 0-3.421-.829-6.522-2.517-9.32-1.666-2.795-3.97-4.985-6.874-6.578zm-.279 21.661c-.965 1.747-2.276 3.116-3.912 4.113a10.223 10.223 0 0 1-5.407 1.502c-1.963 0-3.785-.511-5.459-1.53-1.675-1.012-3.01-2.381-4.02-4.112-.997-1.732-1.49-3.638-1.49-5.738 0-2.065.485-3.961 1.47-5.689a10.96 10.96 0 0 1 4.017-4.088 10.59 10.59 0 0 1 5.482-1.496c1.961 0 3.763.498 5.407 1.496 1.636 1 2.947 2.36 3.912 4.088.962 1.729 1.438 3.625 1.438 5.689-.001 2.1-.476 4.019-1.438 5.765zM357.677 58.07a18.985 18.985 0 0 1-3.553 1.447c-1.222.355-2.354.537-3.398.537-2.069 0-3.953-.503-5.67-1.502a11.011 11.011 0 0 1-4.058-4.113c-.997-1.746-1.502-3.665-1.502-5.764s.489-4.002 1.476-5.714a10.901 10.901 0 0 1 4.04-4.063c1.704-.999 3.591-1.496 5.653-1.496 1.68 0 3.354.34 5.023 1.007l6.101-4.999a22.588 22.588 0 0 0-3.372-1.6 21.92 21.92 0 0 0-7.752-1.416c-3.611 0-6.909.793-9.869 2.384-2.96 1.593-5.292 3.783-6.983 6.577-1.697 2.798-2.54 5.898-2.54 9.32 0 3.448.824 6.575 2.485 9.368 1.659 2.793 3.93 4.998 6.807 6.605 2.877 1.606 6.096 2.417 9.649 2.417 2.438 0 4.979-.436 7.618-1.299 2.639-.866 4.908-1.998 6.807-3.379v-16.55l-6.962 5.651v6.582zM383.424 54.92c0 1.486-.375 2.638-1.123 3.457-.745.81-1.796 1.214-3.151 1.214-1.118 0-2.343-.333-3.676-1.019a12.48 12.48 0 0 1-2.104-1.355l-5.277 4.272c3.127 3.576 6.938 5.363 11.463 5.363 3.729 0 6.646-1.033 8.769-3.101 2.109-2.065 3.173-4.942 3.173-8.628V30.6l-8.071 6.556-.003 17.764zM423.742 32.777c-2.92-1.591-6.145-2.384-9.704-2.384-3.59 0-6.831.793-9.723 2.384-2.895 1.593-5.179 3.783-6.854 6.577-1.677 2.798-2.515 5.898-2.515 9.32 0 3.448.838 6.575 2.515 9.368 1.675 2.793 3.965 4.998 6.877 6.605 2.911 1.605 6.15 2.417 9.698 2.417 3.561 0 6.784-.81 9.704-2.417 2.904-1.607 5.201-3.819 6.878-6.632 1.679-2.805 2.513-5.921 2.513-9.34 0-3.421-.834-6.522-2.513-9.32-1.675-2.795-3.972-4.985-6.876-6.578zm-.279 21.661c-.965 1.747-2.27 3.116-3.91 4.113-1.646.999-3.446 1.502-5.411 1.502-1.961 0-3.785-.511-5.459-1.53-1.677-1.012-3.01-2.381-4.015-4.112-.989-1.732-1.493-3.638-1.493-5.738 0-2.065.485-3.961 1.472-5.689a10.94 10.94 0 0 1 4.015-4.088 10.585 10.585 0 0 1 5.48-1.496c1.965 0 3.765.498 5.411 1.496 1.642 1 2.945 2.36 3.91 4.088.963 1.729 1.444 3.625 1.444 5.689 0 2.1-.481 4.019-1.444 5.765zM465.016 50.732c-1.328-1.609-3.142-2.637-5.44-3.077 1.892-.505 3.4-1.462 4.496-2.864 1.096-1.407 1.649-3.059 1.649-4.955 0-2.74-1.138-4.91-3.4-6.5-2.271-1.591-5.372-2.384-9.294-2.384h-16.359v35.552h16.918c4.127 0 7.394-.886 9.797-2.646 2.405-1.76 3.607-4.169 3.607-7.212-.001-2.332-.666-4.31-1.974-5.914zm-20.32-13.231h7.923c1.518-.032 2.717.285 3.582.968.858.677 1.293 1.622 1.293 2.841 0 1.254-.435 2.223-1.293 2.922-.865.689-2.064 1.04-3.582 1.04h-7.923v-7.771zm12.386 21.309c-1.074.754-2.567 1.138-4.463 1.138h-7.923v-8.43h7.923c1.896-.032 3.389.32 4.463 1.065 1.092.746 1.635 1.759 1.635 3.043 0 1.354-.543 2.416-1.635 3.184zM158.306 50.732c-1.313-1.609-3.127-2.637-5.433-3.077 1.898-.505 3.394-1.462 4.496-2.864 1.104-1.407 1.649-3.059 1.649-4.955 0-2.74-1.13-4.91-3.4-6.5-2.269-1.591-5.371-2.384-9.293-2.384h-16.352v35.552h16.909c4.135 0 7.401-.886 9.804-2.646 2.401-1.76 3.603-4.169 3.603-7.212 0-2.332-.656-4.31-1.983-5.914zm-20.312-13.231h7.925c1.523-.032 2.717.285 3.575.968.865.677 1.299 1.622 1.299 2.841 0 1.254-.435 2.223-1.299 2.922-.858.689-2.052 1.04-3.575 1.04h-7.925v-7.771zm12.394 21.309c-1.09.754-2.577 1.138-4.47 1.138h-7.925v-8.43h7.925c1.893-.032 3.38.32 4.47 1.065 1.083.746 1.619 1.759 1.619 3.043.001 1.354-.535 2.416-1.619 3.184z"/><path d="M136.644 81.792h-6.615v-3.137h16.937v3.137h-6.614v16.822h-3.707V81.792zM162.959 84.9c1.159 1.122 1.739 2.784 1.739 4.989v8.725h-3.564v-8.269c0-1.33-.313-2.333-.939-3.007-.627-.676-1.521-1.012-2.681-1.012-1.312 0-2.349.395-3.107 1.182-.761.789-1.141 1.926-1.141 3.408v7.697h-3.564V77.458h3.564v7.698c.589-.627 1.315-1.106 2.182-1.44.864-.332 1.829-.5 2.894-.5 1.918.001 3.458.562 4.617 1.684zM169.688 80.266a1.999 1.999 0 0 1-.656-1.525c0-.607.218-1.115.656-1.525.437-.407.979-.612 1.625-.612s1.188.196 1.625.584c.438.39.656.88.656 1.468 0 .627-.215 1.155-.643 1.583-.428.429-.974.642-1.639.642-.645-.002-1.187-.205-1.624-.615zm-.171 3.123h3.563v15.226h-3.563V83.389zM191.3 84.9c1.16 1.122 1.739 2.784 1.739 4.989v8.725h-3.563v-8.269c0-1.33-.314-2.333-.941-3.007s-1.521-1.012-2.681-1.012c-1.312 0-2.348.395-3.107 1.182-.761.789-1.141 1.926-1.141 3.408v7.697h-3.564V83.389h3.394v1.967a5.575 5.575 0 0 1 2.224-1.597c.894-.361 1.9-.542 3.022-.542 1.919 0 3.459.561 4.618 1.683zM204.073 92.084l-2.651 2.51v4.021h-3.563V77.458h3.563v12.773l7.385-6.843h4.276l-6.357 6.387 6.957 8.839h-4.333l-5.277-6.53zM224.772 78.655h3.707v19.959h-3.707V78.655zM238.201 81.792h-6.615v-3.137h16.938v3.137h-6.615v16.822h-3.707V81.792z"/></svg>