<svg width="129" height="36" fill="none" xmlns="http://www.w3.org/2000/svg"><g clip-path="url(#a)"><path d="M17.564 0C9.082 0 0 7.234 0 18.001 0 27.925 7.878 36 17.564 36h93.913C121.139 36 129 27.925 129 18.001 129 7.234 119.939 0 111.477 0H17.564Z" fill="#002980"/><path d="M16.188 22.006v6.919h-.714c-1.271 0-1.907-.631-1.907-1.894v-9.863c0-4.21 2.623-5.893 6.595-5.893 3.972 0 6.517 1.735 6.517 6.919 0 4.813-2.41 6.417-5.802 6.417-1.986 0-3.444-.553-4.689-2.605Zm7.708-3.946c0-3.261-1.326-4.55-3.868-4.55-2.543 0-3.841 1.367-3.841 4.235 0 2.869 1.615 4.63 3.84 4.63 2.676 0 3.869-1.288 3.869-4.313v-.002ZM32.4 18.796v5.393H29.75V11.694H32.4v2.552c1.218-2.525 2.623-2.866 4.08-2.866h.291v2.446h-.45c-2.702 0-3.92 1.394-3.92 4.972l-.001-.002ZM38.592 18.192c0-5.182 2.754-6.92 6.781-6.92 4.028 0 6.33 1.685 6.33 5.894v7.023H49.08v-2.183c-1.245 2.052-2.702 2.605-4.688 2.605-3.39 0-5.802-1.604-5.802-6.417l.002-.002Zm10.49-.448c0-2.867-1.166-4.236-3.763-4.236-2.596 0-3.946 1.29-3.946 4.55 0 3.025 1.192 4.314 3.787 4.314 2.305 0 3.92-1.657 3.92-4.63l.002.002ZM64.623 19.796h2.754c-.186 3.366-2.835 4.813-6.2 4.813-3.868 0-6.622-1.947-6.622-6.656 0-4.708 2.754-6.68 6.622-6.68 3.603 0 6.014 1.472 6.2 4.84l-2.754.027c-.186-1.843-1.404-2.63-3.444-2.63-2.648 0-3.84 1.316-3.84 4.445 0 3.13 1.403 4.419 3.84 4.419 2.04 0 3.258-.763 3.444-2.578ZM76.43 24.609c-3.735 0-6.224-1.684-6.224-5.34v-7.575h2.675v7.287c0 2.498 1.431 3.393 3.55 3.393 2.516 0 3.603-.894 3.603-3.393v-7.287h2.648v7.575c0 3.656-2.516 5.34-6.251 5.34ZM84.543 26.74c1.112 0 1.748-.605 1.748-2.211V11.694h2.648v13.152c0 2.973-1.271 4.077-4.08 4.077h-1.774v-2.184h1.458Zm1.536-18.57c0-1 .477-1.448 1.564-1.448 1.087 0 1.536.447 1.536 1.448s-.476 1.447-1.536 1.447-1.564-.446-1.564-1.447ZM113.171 6.959h.714c1.272 0 1.934.658 1.934 1.92v15.31h-2.648V6.96ZM91.509 22.689c0-1 .476-1.448 1.563-1.448s1.537.446 1.537 1.448c0 1-.477 1.447-1.537 1.447s-1.563-.446-1.563-1.447ZM99.8 22.006v6.919h-.715c-1.27 0-1.907-.631-1.907-1.894v-9.863c0-4.21 2.624-5.893 6.596-5.893 3.971 0 6.516 1.735 6.516 6.919 0 4.813-2.41 6.417-5.802 6.417-1.986 0-3.444-.553-4.688-2.605Zm7.709-3.946c0-3.261-1.325-4.55-3.868-4.55S99.8 14.877 99.8 17.745c0 2.869 1.615 4.63 3.841 4.63 2.675 0 3.868-1.288 3.868-4.313v-.002Z" fill="#fff"/></g><defs><clipPath id="a"><path fill="#fff" d="M0 0h129v36H0z"/></clipPath></defs></svg>
