<?xml version="1.0" encoding="UTF-8" standalone="no"?><svg xmlns="http://www.w3.org/2000/svg" xmlns:xlink="http://www.w3.org/1999/xlink" style="isolation:isolate" viewBox="385.982 247.21 353.035 101.522" width="353.035pt" height="101.522pt"><defs><clipPath id="_clipPath_Kvc3kxcoZrjPfOOmplDlNqbn5gal8j0i"><rect x="385.982" y="247.21" width="353.035" height="101.522"/></clipPath></defs><g clip-path="url(#_clipPath_Kvc3kxcoZrjPfOOmplDlNqbn5gal8j0i)"><g><path d=" M 721.651 247.21 L 677.725 247.21 L 677.725 348.732 L 721.651 348.732 C 731.203 348.732 739.018 340.916 739.018 331.365 L 739.018 264.577 C 739.018 255.025 731.203 247.21 721.651 247.21 Z " fill="rgb(51,193,177)"/><path d=" M 385.982 292.073 C 385.982 289.082 386.96 286.783 388.913 285.181 C 390.869 283.579 393.305 282.778 396.224 282.778 C 398.962 282.778 401.475 283.487 403.763 284.903 L 403.763 290.349 C 401.889 289.397 399.763 288.921 397.385 288.921 C 394.214 288.921 392.63 289.755 392.63 291.43 C 392.63 292.267 393.08 292.923 393.981 293.4 C 394.881 293.876 395.98 294.297 397.277 294.657 C 398.574 295.017 399.868 295.504 401.156 296.115 C 402.443 296.729 403.542 297.765 404.451 299.226 C 405.362 300.684 405.817 302.545 405.817 304.801 C 405.817 307.291 404.875 309.355 402.993 310.995 C 401.11 312.635 398.619 313.452 395.521 313.452 C 392.351 313.452 389.432 312.647 386.766 311.032 L 386.766 304.684 C 389.198 306.435 391.8 307.313 394.575 307.313 C 396.485 307.313 397.727 307.074 398.305 306.597 C 398.881 306.12 399.17 305.405 399.17 304.451 C 399.17 303.576 398.714 302.871 397.804 302.334 C 396.895 301.8 395.795 301.333 394.507 300.932 C 393.219 300.535 391.931 300.063 390.644 299.516 C 389.356 298.972 388.257 298.073 387.347 296.816 C 386.436 295.561 385.982 293.978 385.982 292.073 Z " fill="rgb(44,90,115)"/><path d=" M 519.393 298.115 C 519.393 293.158 520.519 289.362 522.772 286.729 C 525.023 284.095 528.247 282.778 532.446 282.778 C 535.147 282.778 537.805 283.34 540.417 284.465 L 540.417 290.344 C 538.238 289.395 535.95 288.92 533.554 288.92 C 531.013 288.92 529.127 289.547 527.892 290.801 C 526.658 292.058 526.042 294.495 526.042 298.115 C 526.042 301.698 526.658 304.125 527.892 305.399 C 529.127 306.674 531.013 307.313 533.554 307.313 C 535.841 307.313 538.128 306.818 540.417 305.827 L 540.417 311.708 C 537.805 312.87 535.147 313.452 532.446 313.452 C 528.247 313.452 525.023 312.132 522.772 309.487 C 520.519 306.843 519.393 303.052 519.393 298.115 Z " fill="rgb(44,90,115)"/><path d=" M 717.427 271.807 L 724.075 271.807 L 724.075 312.987 L 717.427 312.987 L 717.427 271.807 Z " fill="rgb(255,255,255)"/><path d=" M 431.046 286.024 C 428.959 283.86 425.945 282.779 422.005 282.779 C 418.893 282.779 416.063 283.283 413.513 284.292 L 413.513 290.17 C 415.809 289.162 418.515 288.657 421.627 288.657 C 425.526 288.657 427.476 290.548 427.476 294.332 C 425.75 294.061 424.134 293.925 422.624 293.925 C 420.506 293.925 418.666 294.183 417.108 294.697 C 415.55 295.211 414.372 295.827 413.575 296.546 C 412.779 297.263 412.149 298.096 411.687 299.047 C 411.224 299.999 410.939 300.789 410.831 301.42 C 410.722 302.051 410.668 302.667 410.668 303.269 C 410.668 306.101 411.632 308.506 413.562 310.486 C 415.49 312.463 418.494 313.452 422.57 313.452 C 423.605 313.452 424.565 313.38 425.458 313.244 L 425.458 306.558 C 424.701 306.937 423.745 307.137 422.57 307.137 L 422.516 307.137 C 419.048 307.137 417.315 305.546 417.315 302.364 C 417.333 299.785 419.417 298.493 423.568 298.493 C 424.665 298.513 425.984 298.64 427.529 298.873 L 427.529 300.334 L 427.529 302.628 L 427.529 312.767 L 427.529 312.988 L 434.177 312.988 L 434.177 303.443 L 434.177 300.334 L 434.177 295.41 C 434.177 291.316 433.133 288.188 431.046 286.024 Z " fill="rgb(44,90,115)"/><path d=" M 709.446 291.465 C 708.8 289.44 708.037 287.901 707.158 286.853 C 706.278 285.805 705.225 284.953 703.997 284.292 C 702.767 283.634 701.702 283.225 700.795 283.069 C 699.891 282.915 698.979 282.836 698.065 282.836 C 694.119 282.836 691.198 283.823 689.297 285.789 C 687.396 287.759 686.445 290.112 686.445 292.848 L 686.445 324.716 L 693.093 324.716 L 693.093 317.75 L 693.093 313.099 L 693.093 307.69 L 693.093 301.833 L 693.093 292.177 C 693.093 290.046 694.75 288.978 698.065 288.978 C 700.171 288.978 701.65 289.753 702.497 291.306 C 703.344 292.858 703.767 295.379 703.767 298.874 C 703.767 302.286 703.203 304.669 702.077 306.017 C 700.952 307.366 699.317 308.04 697.172 308.04 C 696.551 308.04 695.88 308.007 695.164 307.943 L 695.164 313.47 C 695.976 313.573 696.798 313.629 697.632 313.629 C 701.739 313.629 704.897 312.323 707.103 309.712 C 709.312 307.103 710.415 303.362 710.415 298.492 C 710.415 295.836 710.092 293.495 709.446 291.465 Z " fill="rgb(255,255,255)"/><path d=" M 648.521 301.125 L 643.156 283.243 L 636.104 283.243 L 645.646 310.292 L 648.521 301.125 Z " fill="rgb(44,90,115)"/><path d=" M 647.208 311.583 C 645.568 316.383 642.607 318.574 640.696 318.574 C 639.67 318.574 638.624 318.334 637.563 317.849 L 637.563 323.889 C 638.984 324.44 640.38 324.716 641.749 324.716 C 643.605 324.716 645.399 323.963 647.128 322.46 C 648.857 320.957 650.46 318.041 651.938 313.715 L 662.07 283.243 L 655.424 283.243 L 647.208 311.583 Z " fill="rgb(44,90,115)"/><path d=" M 631.415 300.333 L 631.415 271.807 L 624.769 271.807 L 624.769 283.243 C 623.182 282.932 621.652 282.778 620.176 282.778 C 616.049 282.778 612.889 284.065 610.69 286.642 C 608.491 289.218 607.393 292.925 607.393 297.767 C 607.393 300.428 607.709 302.776 608.339 304.808 C 608.968 306.838 609.736 308.381 610.636 309.429 C 611.537 310.478 612.595 311.335 613.81 311.996 C 615.028 312.656 616.089 313.064 617 313.22 C 617.91 313.375 618.824 313.452 619.743 313.452 C 620.804 313.452 621.785 313.375 622.699 313.232 L 622.699 306.891 C 621.927 307.168 620.948 307.312 619.743 307.312 C 617.634 307.312 616.158 306.532 615.311 304.977 C 614.464 303.419 614.041 300.89 614.041 297.387 C 614.041 294.038 614.581 291.7 615.661 290.366 C 616.742 289.032 618.319 288.366 620.392 288.366 C 622.012 288.386 623.473 288.55 624.769 288.863 L 624.769 300.333 L 624.769 302.254 L 624.769 304.1 L 624.769 312.75 L 624.769 312.987 L 631.418 312.987 L 631.418 300.333 L 631.415 300.333 Z " fill="rgb(44,90,115)"/><path d=" M 599.219 286.793 C 596.965 284.155 593.735 282.836 589.529 282.836 C 585.323 282.836 582.096 284.155 579.842 286.793 C 577.592 289.435 576.466 293.216 576.466 298.145 C 576.466 303.074 577.592 306.855 579.842 309.493 C 581.906 311.909 584.795 313.207 588.495 313.409 L 588.495 307.512 C 586.84 307.332 585.571 306.712 584.695 305.638 C 583.639 304.349 583.112 301.854 583.112 298.159 C 583.112 294.462 583.639 291.966 584.695 290.664 C 585.748 289.366 587.363 288.716 589.544 288.716 C 591.723 288.716 593.336 289.366 594.382 290.664 C 595.425 291.966 595.949 294.462 595.949 298.159 C 595.949 301.854 595.425 304.349 594.382 305.638 C 593.507 306.717 592.232 307.339 590.566 307.514 L 590.566 313.409 C 594.265 313.206 597.156 311.909 599.219 309.493 C 601.47 306.855 602.595 303.074 602.595 298.145 C 602.595 293.216 601.47 289.435 599.219 286.793 Z " fill="rgb(44,90,115)"/><path d=" M 567.659 286.024 C 565.49 283.86 562.481 282.779 558.63 282.779 C 557.384 282.779 556.24 282.91 555.176 283.142 L 555.176 289.306 C 555.899 289.166 556.681 289.094 557.525 289.094 C 558.998 289.094 560.216 289.239 561.177 289.532 C 562.139 289.823 562.832 290.257 563.254 290.841 C 563.677 291.423 563.95 291.979 564.076 292.513 C 564.201 293.047 564.265 293.711 564.265 294.508 L 564.265 312.988 L 570.911 312.988 L 570.911 295.12 C 570.911 291.219 569.828 288.188 567.659 286.024 Z " fill="rgb(44,90,115)"/><path d=" M 553.105 283.767 L 553.105 278.417 L 553.105 271.923 L 546.456 271.923 L 546.456 312.987 L 553.105 312.987 L 553.105 294.333 L 553.105 289.966 L 553.105 283.767 Z " fill="rgb(44,90,115)"/><path d=" M 511.246 286.793 C 508.994 284.155 505.765 282.836 501.559 282.836 C 497.352 282.836 494.123 284.155 491.871 286.793 C 489.619 289.435 488.493 293.216 488.493 298.145 C 488.493 303.074 489.619 306.855 491.871 309.493 C 493.939 311.918 496.842 313.214 500.559 313.411 L 500.559 307.517 C 498.887 307.341 497.604 306.72 496.722 305.638 C 495.668 304.349 495.142 301.854 495.142 298.159 C 495.142 294.462 495.668 291.966 496.722 290.664 C 497.775 289.366 499.392 288.716 501.572 288.716 C 503.752 288.716 505.364 289.366 506.409 290.664 C 507.453 291.966 507.976 294.462 507.976 298.159 C 507.976 301.854 507.453 304.349 506.409 305.638 C 505.542 306.711 504.277 307.328 502.629 307.51 L 502.629 313.409 C 506.312 313.198 509.19 311.902 511.246 309.493 C 513.498 306.855 514.624 303.074 514.624 298.145 C 514.624 293.216 513.498 289.435 511.246 286.793 Z " fill="rgb(44,90,115)"/><path d=" M 447.646 295.226 L 447.646 283.479 C 445.452 284.033 443.238 284.907 441.001 286.127 L 441.001 312.987 L 447.65 312.987 L 447.65 295.226 L 447.646 295.226 Z " fill="rgb(44,90,115)"/><path d=" M 479.382 286.053 C 477.299 283.869 474.391 282.779 470.658 282.779 C 467.438 282.779 464.11 283.514 460.674 284.982 C 458.67 283.514 456.171 282.779 453.174 282.779 L 453.066 282.779 C 451.955 282.779 450.838 282.877 449.716 283.053 L 449.716 289.175 C 450.539 289.084 451.376 289.035 452.23 289.035 C 454.62 289.035 456.251 289.491 457.123 290.401 C 457.995 291.311 458.43 292.674 458.43 294.493 L 458.43 312.987 L 465.078 312.987 L 465.078 295.161 C 465.078 292.413 464.685 290.565 463.901 289.616 C 465.757 289.151 467.642 288.921 469.552 288.921 C 471.978 288.921 473.636 289.402 474.526 290.371 C 475.414 291.338 475.86 292.771 475.86 294.667 L 475.86 312.987 L 482.507 312.987 L 482.507 295.119 C 482.507 291.258 481.465 288.234 479.382 286.053 Z " fill="rgb(44,90,115)"/></g></g></svg>