<?xml version="1.0" encoding="UTF-8" standalone="no"?>
<svg version="1.1" width="1400" height="200" viewBox="0 0 1400 200" xml:space="preserve" id="svg84" sodipodi:docname="logo.svg" inkscape:version="1.2.1 (9c6d41e410, 2022-07-14)" xmlns:inkscape="http://www.inkscape.org/namespaces/inkscape" xmlns:sodipodi="http://sodipodi.sourceforge.net/DTD/sodipodi-0.dtd" xmlns="http://www.w3.org/2000/svg" xmlns:svg="http://www.w3.org/2000/svg"><sodipodi:namedview id="namedview86" pagecolor="#ffffff" bordercolor="#000000" borderopacity="0.25" inkscape:showpageshadow="2" inkscape:pageopacity="0.0" inkscape:pagecheckerboard="0" inkscape:deskcolor="#d1d1d1" showgrid="false" inkscape:zoom="1.336" inkscape:cx="685.62874" inkscape:cy="177.39521" inkscape:window-width="2560" inkscape:window-height="1369" inkscape:window-x="-8" inkscape:window-y="-8" inkscape:window-maximized="1" inkscape:current-layer="svg84"/>
<g transform="matrix(0.63609442,0,0,0.62538432,101.73916,105.34854)" id="xmekYyPc_M0yRQ4mInXdT">
<path style="opacity:1;fill:#fbc02d;fill-rule:nonzero;stroke:#cfc4af;stroke-width:0;stroke-linecap:butt;stroke-linejoin:miter;stroke-miterlimit:4;stroke-dasharray:none;stroke-dashoffset:0" vector-effect="non-scaling-stroke" d="M -78.07018,-78.07018 H 78.07017 V 78.07017 H -78.07018 Z" stroke-linecap="round" id="path49"/>
</g>
<g transform="matrix(0.63609442,0,0,0.62538432,233.40044,105.34854)" id="s7b_f51cy2UL2PYGqADpD">
<path style="opacity:1;fill:#33b5e5;fill-rule:nonzero;stroke:#cfc4af;stroke-width:0;stroke-linecap:butt;stroke-linejoin:miter;stroke-miterlimit:4;stroke-dasharray:none;stroke-dashoffset:0" vector-effect="non-scaling-stroke" d="M -78.07018,-78.07018 H 78.07017 V 78.07017 H -78.07018 Z" stroke-linecap="round" id="path52"/>
</g>


<g transform="translate(909.19186,120.25737)" id="ypcfS__ScK4qO1lgc5unP">
		<g aria-label="." id="text81" style="font-weight:700;font-size:201px;line-height:1;font-family:Roboto;letter-spacing:0.402;white-space:pre;opacity:1;fill:#fbc02d"><path d="m -16.83379,35.773476 q 0,-6.771973 4.514649,-10.992188 4.6127926,-4.220215 11.48290977,-4.220215 6.96826173,0 11.48291023,4.220215 4.612793,4.220215 4.612793,10.992188 0,6.673828 -4.514649,10.894043 -4.514648,4.12207 -11.58105423,4.12207 -6.96826177,0 -11.48290977,-4.12207 -4.514649,-4.220215 -4.514649,-10.894043 z" id="path204"/></g>
</g>
<text xml:space="preserve" style="font-weight:normal;font-size:192px;font-family:Montserrat;-inkscape-font-specification:'Montserrat, @wght=700';fill:#33b5e5;font-style:normal;font-stretch:normal;font-variant:normal;font-variation-settings:'wght' 700;font-variant-ligatures:normal;font-variant-caps:normal;font-variant-numeric:normal;font-variant-east-asian:normal" x="365.26947" y="185.62874" id="text296"><tspan sodipodi:role="line" id="tspan298"/></text><g aria-label="SOLID" id="text302" style="font-size:173.333px;font-family:Montserrat;-inkscape-font-specification:'Montserrat, @wght=700';font-variation-settings:'wght' 700;fill:#ffffff;fill-opacity:1" inkscape:highlight-color="#a3ffff"><path d="m 387.59454,169.49308 q -14.55998,0 -27.90662,-3.81332 -13.34664,-3.98666 -21.49329,-10.22665 l 9.53332,-21.14663 q 7.79998,5.54666 18.37329,9.18665 10.74665,3.46666 21.66663,3.46666 8.31998,0 13.34664,-1.55999 5.19999,-1.73333 7.62665,-4.67999 2.42666,-2.94667 2.42666,-6.75999 0,-4.85333 -3.81332,-7.62665 -3.81333,-2.94666 -10.05332,-4.67999 -6.23998,-1.90667 -13.86664,-3.46666 -7.45332,-1.73333 -15.07997,-4.16 -7.45332,-2.42666 -13.6933,-6.23998 -6.23999,-3.81333 -10.22665,-10.053317 -3.81333,-6.239988 -3.81333,-15.946635 0,-10.39998 5.54666,-18.893297 5.71999,-8.666649 16.98663,-13.693306 11.43998,-5.19999 28.59995,-5.19999 11.43997,0 22.53329,2.773328 11.09331,2.599995 19.58662,7.973318 l -8.66665,21.319958 q -8.49331,-4.853324 -16.98663,-7.106653 -8.49332,-2.426662 -16.63997,-2.426662 -8.14665,0 -13.34664,1.906663 -5.19999,1.906663 -7.45332,5.026657 -2.25332,2.946661 -2.25332,6.93332 0,4.67999 3.81332,7.626651 3.81333,2.773328 10.05332,4.506658 6.23998,1.73333 13.6933,3.46666 7.62665,1.73333 15.07997,3.986659 7.62665,2.253328 13.86664,6.066658 6.23999,3.81332 10.05332,10.05331 3.98665,6.23999 3.98665,15.7733 0,10.22665 -5.71998,18.71997 -5.71999,8.49331 -17.15997,13.6933 -11.26665,5.19999 -28.59994,5.19999 z" id="path2816" style="fill:#ffffff;fill-opacity:1"/><path d="m 517.2477,169.49308 q -14.38664,0 -26.69328,-4.67999 -12.13331,-4.67999 -21.14663,-13.17331 -8.83998,-8.49331 -13.86664,-19.93329 -4.85332,-11.43998 -4.85332,-24.95995 0,-13.519975 4.85332,-24.959952 5.02666,-11.439978 14.03997,-19.933295 9.01332,-8.493316 21.14663,-13.173307 12.13331,-4.679991 26.34661,-4.679991 14.38664,0 26.34662,4.679991 12.13331,4.679991 20.97329,13.173307 9.01332,8.493317 14.03997,19.933295 5.02666,11.266644 5.02666,24.959952 0,13.51997 -5.02666,25.13328 -5.02665,11.43998 -14.03997,19.9333 -8.83998,8.31998 -20.97329,12.99997 -11.95998,4.67999 -26.17328,4.67999 z m -0.17334,-23.91995 q 8.14665,0 14.90664,-2.77333 6.93332,-2.77333 12.13331,-7.97332 5.19999,-5.19999 7.97332,-12.30664 2.94666,-7.10665 2.94666,-15.7733 0,-8.666651 -2.94666,-15.773304 -2.77333,-7.106652 -7.97332,-12.306642 -5.02666,-5.19999 -11.95998,-7.973318 -6.93332,-2.773328 -15.07997,-2.773328 -8.14665,0 -15.07997,2.773328 -6.75998,2.773328 -11.95997,7.973318 -5.19999,5.19999 -8.14665,12.306642 -2.77333,7.106653 -2.77333,15.773304 0,8.49332 2.77333,15.7733 2.94666,7.10665 7.97331,12.30664 5.19999,5.19999 12.13331,7.97332 6.93332,2.77333 15.07997,2.77333 z" id="path2818" style="fill:#ffffff;fill-opacity:1"/><path d="M 604.60749,167.41309 V 46.079991 h 28.07995 v 98.453139 h 60.83988 v 22.87996 z" id="path2820" style="fill:#ffffff;fill-opacity:1"/><path d="M 709.30064,167.41309 V 46.079991 h 28.07994 V 167.41309 Z" id="path2822" style="fill:#ffffff;fill-opacity:1"/><path d="M 766.1537,167.41309 V 46.079991 h 55.11989 q 19.75996,0 34.83993,7.626652 15.07997,7.453319 23.57329,20.973292 8.49331,13.519973 8.49331,32.066605 0,18.3733 -8.49331,32.0666 -8.49332,13.51998 -23.57329,21.14663 -15.07997,7.45332 -34.83993,7.45332 z m 28.07994,-23.05329 h 25.65329 q 12.1333,0 20.97329,-4.50666 9.01331,-4.67999 13.86664,-13.17331 5.02665,-8.49331 5.02665,-19.93329 0,-11.613312 -5.02665,-19.933296 -4.85333,-8.493316 -13.86664,-12.999974 -8.83999,-4.679991 -20.97329,-4.679991 h -25.65329 z" id="path2824" style="fill:#ffffff;fill-opacity:1"/></g><g aria-label="Jobs" id="text306" style="font-size:173.333px;font-family:Montserrat;-inkscape-font-specification:'Montserrat, @wght=700';font-variation-settings:'wght' 700;fill:#33b5e5" transform="translate(0,-2)"><path d="m 982.85438,172.69308 q -12.30664,0 -22.70662,-4.50666 -10.22665,-4.67999 -16.8133,-13.17331 l 15.59997,-18.71996 q 5.02666,6.58665 10.57331,10.05331 5.54666,3.29333 11.95998,3.29333 17.15996,0 17.15996,-20.10663 V 71.813277 H 955.98777 V 49.279988 h 70.54653 v 78.693182 q 0,22.53329 -11.0933,33.6266 -11.0933,11.09331 -32.58662,11.09331 z" id="path2827"/><path d="m 1096.7342,171.99975 q -14.9066,0 -26.5199,-6.23999 -11.44,-6.23999 -18.2,-16.98663 -6.5866,-10.91998 -6.5866,-24.78662 0,-14.03997 6.5866,-24.78662 6.76,-10.919979 18.2,-16.986633 11.6133,-6.239988 26.5199,-6.239988 14.7333,0 26.3466,6.239988 11.6134,6.066654 18.2,16.8133 6.5867,10.746643 6.5867,24.959953 0,13.86664 -6.5867,24.78662 -6.5866,10.74664 -18.2,16.98663 -11.6133,6.23999 -26.3466,6.23999 z m 0,-22.18663 q 6.76,0 12.1333,-3.11999 5.3734,-3.11999 8.4934,-8.83998 3.1199,-5.89332 3.1199,-13.86664 0,-8.14665 -3.1199,-13.86664 -3.12,-5.71999 -8.4934,-8.83998 -5.3733,-3.119998 -12.1333,-3.119998 -6.76,0 -12.1333,3.119998 -5.3733,3.11999 -8.6666,8.83998 -3.12,5.71999 -3.12,13.86664 0,7.97332 3.12,13.86664 3.2933,5.71999 8.6666,8.83998 5.3733,3.11999 12.1333,3.11999 z" id="path2829"/><path d="m 1221.0141,171.99975 q -12.3066,0 -21.1466,-5.19999 -8.84,-5.19999 -13.52,-15.77331 -4.68,-10.74664 -4.68,-27.03994 0,-16.46664 4.8533,-27.039949 5.0267,-10.573312 13.8667,-15.773302 8.84,-5.19999 20.6266,-5.19999 13.1733,0 23.5733,5.893322 10.5733,5.893321 16.64,16.639967 6.2399,10.746642 6.2399,25.479952 0,14.55997 -6.2399,25.30661 -6.0667,10.74665 -16.64,16.81331 -10.4,5.89332 -23.5733,5.89332 z m -55.1199,-1.38667 V 42.000002 h 27.04 v 54.253227 l -1.7334,27.559941 0.52,27.73328 v 19.06663 z m 50.4399,-20.79996 q 6.76,0 11.96,-3.11999 5.3733,-3.11999 8.4933,-8.83998 3.2933,-5.89332 3.2933,-13.86664 0,-8.14665 -3.2933,-13.86664 -3.12,-5.71999 -8.4933,-8.83998 -5.2,-3.119998 -11.96,-3.119998 -6.76,0 -12.1333,3.119998 -5.3733,3.11999 -8.4933,8.83998 -3.12,5.71999 -3.12,13.86664 0,7.97332 3.12,13.86664 3.12,5.71999 8.4933,8.83998 5.3733,3.11999 12.1333,3.11999 z" id="path2831"/><path d="m 1316.8673,171.99975 q -11.9599,0 -23.0532,-2.77333 -10.92,-2.94666 -17.3333,-7.27999 l 9.0133,-19.41329 q 6.4133,3.98666 15.0799,6.58665 8.84,2.42666 17.3333,2.42666 9.36,0 13.1734,-2.25333 3.9866,-2.25332 3.9866,-6.23998 0,-3.29333 -3.12,-4.85333 -2.9466,-1.73333 -7.9733,-2.59999 -5.0267,-0.86667 -11.0933,-1.73333 -5.8933,-0.86667 -11.96,-2.25333 -6.0666,-1.56 -11.0933,-4.50666 -5.0267,-2.94666 -8.1467,-7.97332 -2.9466,-5.02665 -2.9466,-12.99997 0,-8.839983 5.0266,-15.59997 5.2,-6.759986 14.9067,-10.573312 9.7066,-3.986659 23.2266,-3.986659 9.5333,0 19.4133,2.079996 9.88,2.079996 16.4666,6.066655 l -9.0133,19.23996 q -6.76,-3.986657 -13.6933,-5.373321 -6.76,-1.559997 -13.1733,-1.559997 -9.0133,0 -13.1733,2.426662 -4.16,2.426666 -4.16,6.239986 0,3.46666 2.9467,5.19999 3.12,1.73333 8.1466,2.77333 5.0267,1.04 10.92,1.90666 6.0666,0.69333 12.1333,2.25333 6.0667,1.56 10.92,4.50666 5.0266,2.77333 8.1466,7.79998 3.12,4.85333 3.12,12.82665 0,8.66664 -5.2,15.42663 -5.2,6.58666 -15.0799,10.39998 -9.7067,3.81333 -23.7467,3.81333 z" id="path2833"/></g></svg>